<svg width="71" height="22" viewBox="0 0 71 22" fill="none" xmlns="http://www.w3.org/2000/svg">
<path d="M6.56747 21.8298V19.6228C3.20783 19.3285 0.731022 17.3176 0.510316 13.8109H2.20239C2.4231 16.2141 3.74734 17.8571 6.56747 18.1269V11.2605C3.94352 10.6719 1.246 9.61744 1.246 6.79731C1.246 4.12432 3.2814 2.3832 6.56747 2.2851V0.470411H7.79361V2.33415C10.6383 2.65295 12.6246 4.39407 12.8208 7.38586H11.1287C10.908 5.35046 9.80449 4.14884 7.79361 3.87909V10.0098C11.374 10.9662 13.3113 11.9226 13.3113 14.9634C13.3113 17.4893 11.4966 19.5492 7.79361 19.6718V21.8298H6.56747ZM2.93808 6.65018C2.93808 8.44035 4.43398 9.10246 6.56747 9.69101V3.80552C4.31136 3.87909 2.93808 4.9581 2.93808 6.65018ZM11.5947 15.037C11.6437 13.0752 10.5647 12.2904 7.79361 11.5548V18.1759C10.5402 18.0778 11.5701 16.8026 11.5947 15.037ZM19.2437 2.40772H20.6905V19.353H18.9004V5.98806C18.0911 6.84636 16.8895 6.96897 15.3936 6.96897V5.47308C18.3363 5.39951 19.0475 4.46764 19.2437 2.40772ZM33.6674 19.353H31.8772V15.2332H23.5884V13.6637L31.8772 2.40772H33.6674V13.6637H36.0706V15.2332H33.6674V19.353ZM31.8772 4.93358L25.4522 13.6637H31.8772V4.93358ZM38.2112 17.2931H40.2711V19.353H38.2112V17.2931ZM48.8095 19.6718C44.3218 19.6718 42.4335 15.6991 42.4335 10.8926C42.4335 6.08615 44.3218 2.08892 48.8095 2.08892C53.2971 2.08892 55.2099 6.08615 55.2099 10.8926C55.2099 15.6991 53.2971 19.6718 48.8095 19.6718ZM48.8095 18.1024C52.1691 18.1024 53.3462 14.7427 53.3462 10.8926C53.3462 7.01802 52.1691 3.65839 48.8095 3.65839C45.4743 3.65839 44.2973 7.01802 44.2973 10.8926C44.2973 14.7427 45.4743 18.1024 48.8095 18.1024ZM64.4294 19.6718C59.9417 19.6718 58.0534 15.6991 58.0534 10.8926C58.0534 6.08615 59.9417 2.08892 64.4294 2.08892C68.9171 2.08892 70.8299 6.08615 70.8299 10.8926C70.8299 15.6991 68.9171 19.6718 64.4294 19.6718ZM64.4294 18.1024C67.789 18.1024 68.9661 14.7427 68.9661 10.8926C68.9661 7.01802 67.789 3.65839 64.4294 3.65839C61.0943 3.65839 59.9172 7.01802 59.9172 10.8926C59.9172 14.7427 61.0943 18.1024 64.4294 18.1024Z" fill="#161010"/>
</svg>
