<svg width="65" height="18" viewBox="0 0 65 18" fill="none" xmlns="http://www.w3.org/2000/svg">
<path d="M5.75771 17.9485V16.1093C2.95801 15.8641 0.894004 14.1884 0.710082 11.266H2.12015C2.30407 13.2687 3.4076 14.6379 5.75771 14.8627V9.14073C3.57109 8.65027 1.32315 7.77154 1.32315 5.42143C1.32315 3.19393 3.01932 1.74299 5.75771 1.66125V0.149007H6.77949V1.70212C9.15004 1.96779 10.8053 3.41872 10.9688 5.91188H9.55875C9.37483 4.21572 8.45523 3.21437 6.77949 2.98957V8.09851C9.76311 8.8955 11.3775 9.69249 11.3775 12.2265C11.3775 14.3314 9.86529 16.048 6.77949 16.1502V17.9485H5.75771ZM2.73322 5.29881C2.73322 6.79062 3.9798 7.34239 5.75771 7.83284V2.92827C3.87762 2.98957 2.73322 3.88875 2.73322 5.29881ZM9.94703 12.2878C9.98791 10.653 9.08873 9.99903 6.77949 9.38596V14.9036C9.0683 14.8219 9.9266 13.7592 9.94703 12.2878ZM14.9316 6.52496H13.3785C13.3785 3.78657 14.9929 1.49777 18.3239 1.49777C20.7353 1.49777 22.6972 3.01001 22.6972 5.64622C22.6972 8.3233 20.5719 9.54944 18.5283 10.7143C16.8117 11.6952 15.1155 12.6557 14.7681 14.5358V14.5766H22.5541V15.8845H12.9902C12.9902 13.2687 14.6046 11.3274 17.1591 9.89685C19.7136 8.42548 21.1441 7.81241 21.1441 5.66666C21.1441 4.27703 20.4697 2.80565 18.3035 2.80565C15.8512 2.80565 14.9316 4.52225 14.9316 6.52496ZM29.7459 16.1502C26.8849 16.1502 24.5757 14.7197 24.5757 11.9404C24.5757 9.97859 25.8427 8.93637 27.2936 8.34374V8.30286C26.2105 7.77154 25.2705 6.83149 25.2705 5.2375C25.2705 2.86696 27.1506 1.49777 29.7459 1.49777C32.3412 1.49777 34.2213 2.86696 34.2213 5.2375C34.2213 6.83149 33.2609 7.77154 32.1982 8.30286V8.34374C33.6287 8.93637 34.9161 9.97859 34.9161 11.9404C34.9161 14.7197 32.6069 16.1502 29.7459 16.1502ZM29.7459 7.66936C31.5034 7.66936 32.6682 6.87236 32.6682 5.2375C32.6682 3.60265 31.5034 2.80565 29.7459 2.80565C27.9884 2.80565 26.8236 3.60265 26.8236 5.2375C26.8236 6.87236 27.9884 7.66936 29.7459 7.66936ZM29.7459 14.8423C31.8917 14.8423 33.363 13.7796 33.363 11.8791C33.363 10.0399 31.8917 8.97724 29.7459 8.97724C27.6002 8.97724 26.1288 10.0399 26.1288 11.8791C26.1288 13.7796 27.6002 14.8423 29.7459 14.8423ZM37.0169 14.1679H38.7335V15.8845H37.0169V14.1679ZM45.8488 16.1502C42.109 16.1502 40.5355 12.8396 40.5355 8.83419C40.5355 4.82879 42.109 1.49777 45.8488 1.49777C49.5885 1.49777 51.1825 4.82879 51.1825 8.83419C51.1825 12.8396 49.5885 16.1502 45.8488 16.1502ZM45.8488 14.8423C48.6485 14.8423 49.6294 12.0426 49.6294 8.83419C49.6294 5.60535 48.6485 2.80565 45.8488 2.80565C43.0695 2.80565 42.0886 5.60535 42.0886 8.83419C42.0886 12.0426 43.0695 14.8423 45.8488 14.8423ZM58.8654 16.1502C55.1256 16.1502 53.5521 12.8396 53.5521 8.83419C53.5521 4.82879 55.1256 1.49777 58.8654 1.49777C62.6051 1.49777 64.1991 4.82879 64.1991 8.83419C64.1991 12.8396 62.6051 16.1502 58.8654 16.1502ZM58.8654 14.8423C61.6651 14.8423 62.646 12.0426 62.646 8.83419C62.646 5.60535 61.6651 2.80565 58.8654 2.80565C56.0861 2.80565 55.1052 5.60535 55.1052 8.83419C55.1052 12.0426 56.0861 14.8423 58.8654 14.8423Z" fill="#161010"/>
</svg>
