<svg width="60" height="23" viewBox="0 0 60 23" fill="none" xmlns="http://www.w3.org/2000/svg">
<path d="M6.332 22.3159V20.1089C2.97237 19.8146 0.495559 17.8037 0.274853 14.2969H1.96693C2.18764 16.7002 3.51187 18.3432 6.332 18.613V11.7466C3.70806 11.158 1.01054 10.1035 1.01054 7.2834C1.01054 4.6104 3.04594 2.86928 6.332 2.77119V0.956495H7.55815V2.82023C10.4028 3.13903 12.3892 4.88016 12.5853 7.87195H10.8933C10.6726 5.83655 9.56902 4.63493 7.55815 4.36518V10.4959C11.1385 11.4523 13.0758 12.4087 13.0758 15.4495C13.0758 17.9754 11.2611 20.0353 7.55815 20.1579V22.3159H6.332ZM2.70262 7.13626C2.70262 8.92643 4.19851 9.58855 6.332 10.1771V4.29161C4.0759 4.36518 2.70262 5.44418 2.70262 7.13626ZM11.3592 15.5231C11.4082 13.5613 10.3292 12.7765 7.55815 12.0408V18.662C10.3047 18.5639 11.3347 17.2887 11.3592 15.5231ZM14.7008 2.8938H26.2266V4.26708C21.7144 7.92099 19.2376 14.6648 19.2376 19.8391H17.3738C17.3738 14.4686 20.3901 7.74933 24.1912 4.51231V4.46327H14.7008V2.8938ZM26.4509 17.7792H28.5108V19.8391H26.4509V17.7792ZM37.0492 20.1579C32.5615 20.1579 30.6733 16.1852 30.6733 11.3787C30.6733 6.57223 32.5615 2.575 37.0492 2.575C41.5369 2.575 43.4497 6.57223 43.4497 11.3787C43.4497 16.1852 41.5369 20.1579 37.0492 20.1579ZM37.0492 18.5884C40.4088 18.5884 41.5859 15.2288 41.5859 11.3787C41.5859 7.5041 40.4088 4.14447 37.0492 4.14447C33.7141 4.14447 32.537 7.5041 32.537 11.3787C32.537 15.2288 33.7141 18.5884 37.0492 18.5884ZM52.6691 20.1579C48.1814 20.1579 46.2932 16.1852 46.2932 11.3787C46.2932 6.57223 48.1814 2.575 52.6691 2.575C57.1568 2.575 59.0696 6.57223 59.0696 11.3787C59.0696 16.1852 57.1568 20.1579 52.6691 20.1579ZM52.6691 18.5884C56.0288 18.5884 57.2059 15.2288 57.2059 11.3787C57.2059 7.5041 56.0288 4.14447 52.6691 4.14447C49.334 4.14447 48.1569 7.5041 48.1569 11.3787C48.1569 15.2288 49.334 18.5884 52.6691 18.5884Z" fill="#161010"/>
</svg>
