<svg width="88" height="22" viewBox="0 0 88 22" fill="none" xmlns="http://www.w3.org/2000/svg">
<path d="M13.0359 7.12247C12.7171 5.40587 11.6381 3.14976 8.27849 3.14976C4.40388 3.14976 2.9325 6.43583 2.9325 9.91808C2.9325 13.4248 4.40388 16.7109 8.27849 16.7109C11.6626 16.7109 12.8643 14.4548 13.0359 12.3213H15.8561C15.4637 16.2205 12.7417 19.0406 8.30301 19.0406C3.32487 19.0406 0.136894 15.215 0.136894 9.9426C0.136894 4.64566 3.34939 0.820088 8.32754 0.820088C12.7417 0.820088 15.4392 3.6157 15.8561 7.12247H13.0359ZM22.2807 19.0406C19.7793 19.0406 18.1853 17.5937 18.1853 15.4602C18.1853 12.6646 20.2943 11.8554 23.4087 11.2423C25.3706 10.8745 26.5722 10.6292 26.5722 9.4031C26.5722 8.49575 26.0327 7.73554 24.1935 7.73554C22.0109 7.73554 21.3488 8.42218 21.2262 10.0897H18.7739C18.8965 7.68649 20.466 5.79823 24.2915 5.79823C26.8664 5.79823 28.9264 6.87724 28.9264 10.1143V15.8526C28.9264 16.76 29.049 17.2259 29.5149 17.2259C29.5885 17.2259 29.6621 17.2259 29.8092 17.2014V18.6727C29.3923 18.7708 28.9754 18.8199 28.583 18.8199C27.406 18.8199 26.7438 18.3539 26.6212 16.9316H26.5722C25.7384 18.2313 24.3161 19.0406 22.2807 19.0406ZM22.8202 17.1033C24.9782 17.1033 26.5722 15.9997 26.5722 13.8172V12.027C26.1798 12.3949 25.1008 12.6646 23.8256 12.9344C21.6186 13.4003 20.7112 13.9889 20.7112 15.2886C20.7112 16.4657 21.3243 17.1033 22.8202 17.1033ZM32.7341 6.1906H35.1374V8.56932H35.1864C35.824 6.99985 36.854 5.89632 38.546 5.89632C38.9875 5.89632 39.3308 5.92085 39.6986 5.96989V8.27504C39.3798 8.226 39.1591 8.20147 38.8894 8.20147C36.7068 8.20147 35.1374 9.84451 35.1374 12.2232V18.6973H32.7341V6.1906ZM41.8139 6.1906H43.6286V2.16885H46.0318V6.1906H48.4351V8.17695H46.0318V15.2395C46.0318 16.5638 46.3997 16.858 47.4296 16.858C47.822 16.858 48.0182 16.8335 48.4596 16.76V18.6973C47.822 18.8199 47.4542 18.8444 46.9147 18.8444C44.8793 18.8444 43.6286 18.0597 43.6286 15.166V8.17695H41.8139V6.1906ZM61.8746 0.108925H63.9835C62.4141 3.07619 61.1389 6.38678 61.1389 10.9235C61.1389 15.3622 62.4141 18.7218 63.9835 21.6891H61.8746C60.0599 19.2122 58.4904 15.3622 58.4904 10.9235C58.4904 6.33774 60.0599 2.58574 61.8746 0.108925ZM69.6981 6.85272H67.0006C67.0006 3.71379 69.1341 1.40864 73.303 1.40864C76.3193 1.40864 78.9433 3.07619 78.9433 6.06798C78.9433 7.88268 78.0114 9.01073 76.3684 9.69737V9.74642C78.5999 10.4576 79.5318 11.929 79.5318 13.9153C79.5318 17.2014 77.1041 19.0406 73.3766 19.0406C69.0115 19.0406 66.5592 16.7845 66.5592 12.9099H69.2567C69.2567 15.2395 70.2376 16.76 73.2049 16.76C75.8779 16.76 76.7607 15.681 76.7607 13.8663C76.7607 11.5366 75.0932 10.9726 73.4011 10.9726H71.8071V8.79002H73.303C74.9706 8.79002 76.1722 8.02981 76.1722 6.1906C76.1722 4.86636 75.3874 3.68926 73.2785 3.68926C70.4338 3.68926 69.6981 5.20968 69.6981 6.85272ZM84.3025 21.6891H82.1935C83.7875 18.7218 85.0382 15.3867 85.0382 10.8499C85.0382 6.4113 83.7875 3.07619 82.1935 0.108925H84.3025C86.1417 2.58574 87.7112 6.4113 87.7112 10.8499C87.7112 15.4357 86.1417 19.2122 84.3025 21.6891Z" fill="#161010"/>
</svg>
