<svg width="543" height="54" viewBox="0 0 543 54" fill="none" xmlns="http://www.w3.org/2000/svg">
<rect x="0.106689" y="0.431396" width="542.569" height="53.1329" rx="26.5664" fill="#161010"/>
<path d="M240.788 24.1341C240.522 22.7036 239.623 20.8235 236.824 20.8235C233.595 20.8235 232.369 23.5619 232.369 26.4638C232.369 29.3861 233.595 32.1245 236.824 32.1245C239.644 32.1245 240.645 30.2444 240.788 28.4665H243.138C242.811 31.7158 240.543 34.0659 236.844 34.0659C232.696 34.0659 230.039 30.8779 230.039 26.4842C230.039 22.0701 232.716 18.8821 236.864 18.8821C240.543 18.8821 242.791 21.2118 243.138 24.1341H240.788ZM251.779 27.0973C251.779 25.7077 251.166 24.7676 249.674 24.7676C247.958 24.7676 246.854 25.8098 246.854 27.3834V33.7798H244.852V19.1682H246.854V24.6654H246.895C247.447 23.8685 248.53 23.051 250.328 23.051C252.249 23.051 253.802 24.1546 253.802 26.5455V33.7798H251.779V27.0973ZM260.528 34.0863C257.217 34.0863 255.378 31.7362 255.378 28.5482C255.378 25.2785 257.34 23.0306 260.528 23.0306C263.696 23.0306 265.474 25.115 265.474 28.3439C265.474 28.63 265.474 28.9365 265.453 29.1H257.442C257.483 30.8575 258.505 32.4515 260.569 32.4515C262.408 32.4515 263.103 31.2662 263.307 30.5714H265.33C264.799 32.5741 263.266 34.0863 260.528 34.0863ZM260.467 24.6654C258.791 24.6654 257.565 25.8098 257.442 27.5265H263.369C263.369 25.8916 262.245 24.6654 260.467 24.6654ZM274.418 27.1382C274.337 26.0551 273.724 24.7063 271.803 24.7063C269.596 24.7063 268.778 26.6068 268.778 28.5687C268.778 30.5305 269.596 32.4106 271.803 32.4106C273.724 32.4106 274.337 31.1027 274.418 29.9174H276.503C276.36 32.3084 274.48 34.0863 271.823 34.0863C268.717 34.0863 266.694 31.8384 266.694 28.5687C266.694 25.299 268.717 23.051 271.803 23.051C274.48 23.051 276.258 24.7881 276.503 27.1382H274.418ZM278.1 33.7798V19.1682H280.102V27.7717L284.659 23.3576H286.948L282.943 27.179L287.377 33.7798H285.027L281.615 28.4461L280.102 29.897V33.7798H278.1ZM292.48 34.0863C289.231 34.0863 287.269 31.8384 287.269 28.5687C287.269 25.3194 289.231 23.0306 292.48 23.0306C295.73 23.0306 297.691 25.299 297.691 28.5482C297.691 31.818 295.73 34.0863 292.48 34.0863ZM292.48 32.431C294.606 32.431 295.607 30.7349 295.607 28.5687C295.607 26.382 294.606 24.7063 292.48 24.7063C290.335 24.7063 289.354 26.382 289.354 28.5687C289.354 30.7349 290.335 32.431 292.48 32.431ZM301.275 30.0196C301.275 31.4297 301.888 32.3697 303.379 32.3697C305.096 32.3697 306.2 31.3275 306.2 29.7539V23.3576H308.202V33.7798H306.2V32.4719H306.159C305.607 33.2689 304.524 34.0659 302.725 34.0659C300.805 34.0659 299.251 32.9624 299.251 30.5714V23.3576H301.275V30.0196ZM309.635 23.3576H311.147V20.0061H313.15V23.3576H315.153V25.0129H313.15V30.8983C313.15 32.0019 313.456 32.2471 314.315 32.2471C314.642 32.2471 314.805 32.2267 315.173 32.1654V33.7798C314.642 33.882 314.335 33.9024 313.886 33.9024C312.189 33.9024 311.147 33.2485 311.147 30.837V25.0129H309.635V23.3576Z" fill="white"/>
</svg>
