<svg width="72" height="16" viewBox="0 0 72 16" fill="none" xmlns="http://www.w3.org/2000/svg">
<path d="M6.76874 6.54674C9.75236 7.20069 12.082 7.93637 12.082 10.8996C12.082 13.2701 10.4472 15.1502 6.9731 15.1502C3.43771 15.1502 0.924119 13.3314 0.719761 10.0413H2.27288C2.47723 12.3096 3.86686 13.8423 6.91179 13.8423C9.60931 13.8423 10.5289 12.5548 10.5289 10.9404C10.5493 8.77424 9.01667 8.40639 6.03305 7.73201C3.64207 7.18025 1.33283 6.44456 1.33283 3.76748C1.33283 1.43781 3.19249 0.00730775 6.1761 0.00730775C9.36408 0.00730775 11.3668 1.62173 11.5916 4.48273H10.0385C9.79323 2.4596 8.66926 1.31519 6.19654 1.31519C4.05079 1.31519 2.88595 2.19393 2.88595 3.70618C2.88595 5.66801 4.62299 6.07672 6.76874 6.54674ZM15.3945 11.4922C15.3945 12.8205 15.9872 13.9649 17.8059 13.9649C19.7678 13.9649 21.0757 12.5753 21.0757 11.0426V4.4623H22.404V14.8845H21.0757V13.4131H21.0348C20.4626 14.2714 19.3386 15.1298 17.479 15.1298C15.5989 15.1298 14.0662 14.0875 14.0662 11.7783V4.4623H15.3945V11.4922ZM26.3989 13.1066H26.358V14.8845H25.0297V0.272973H26.358V6.13803H26.3989C26.9915 5.13668 28.095 4.19663 29.9138 4.19663C32.4478 4.19663 34.4914 6.24021 34.4914 9.67341C34.4914 13.0862 32.4478 15.1298 29.9138 15.1298C28.095 15.1298 27.0119 14.2306 26.3989 13.1066ZM29.7503 5.34103C27.7476 5.34103 26.358 7.0372 26.358 9.67341C26.358 12.2892 27.7476 13.9649 29.7503 13.9649C31.9165 13.9649 33.1018 12.0031 33.1018 9.67341C33.1018 7.3233 31.9165 5.34103 29.7503 5.34103ZM35.5135 4.4623H37.0462V0.988224H38.3745V4.4623H40.4998V5.62713H38.3745V12.2074C38.3745 13.4949 38.6811 13.8014 39.7028 13.8014C40.0298 13.8014 40.1933 13.781 40.4998 13.7606V14.8845C40.0911 14.9458 39.8459 14.9663 39.5189 14.9663C37.9862 14.9663 37.0462 14.4554 37.0462 12.187V5.62713H35.5135V4.4623ZM46.5986 15.1706C43.472 15.1706 41.5919 12.9227 41.5919 9.69385C41.5919 6.44456 43.472 4.19663 46.5986 4.19663C49.7048 4.19663 51.6054 6.44456 51.6054 9.69385C51.6054 12.9227 49.7048 15.1706 46.5986 15.1706ZM46.5986 14.0058C49.0305 14.0058 50.2157 12.0848 50.2157 9.69385C50.2157 7.28243 49.0305 5.36147 46.5986 5.36147C44.1463 5.36147 42.9815 7.28243 42.9815 9.69385C42.9815 12.0848 44.1463 14.0058 46.5986 14.0058ZM52.626 4.4623H54.1587V0.988224H55.487V4.4623H57.6124V5.62713H55.487V12.2074C55.487 13.4949 55.7936 13.8014 56.8154 13.8014C57.1423 13.8014 57.3058 13.781 57.6124 13.7606V14.8845C57.2036 14.9458 56.9584 14.9663 56.6314 14.9663C55.0988 14.9663 54.1587 14.4554 54.1587 12.187V5.62713H52.626V4.4623ZM62.2364 15.1502C60.1724 15.1502 58.8237 13.9853 58.8237 12.2483C58.8237 10.0004 60.4176 9.30557 63.1152 8.81511C64.8318 8.50857 65.9353 8.38596 65.9353 7.13938C65.9353 6.07672 65.2609 5.36147 63.5647 5.36147C61.562 5.36147 60.8264 6.07672 60.7242 7.6094H59.3345C59.4367 5.77018 60.5811 4.19663 63.6261 4.19663C65.547 4.19663 67.2432 5.01406 67.2432 7.50722V12.7183C67.2432 13.5562 67.3658 13.9445 67.8154 13.9445C67.9176 13.9445 67.9789 13.9445 68.1015 13.924V14.8845C67.8767 14.9254 67.6519 14.9663 67.4067 14.9663C66.5484 14.9663 66.017 14.6189 65.9557 13.311H65.9149C65.1792 14.4962 63.953 15.1502 62.2364 15.1502ZM62.3999 13.9853C64.5457 13.9853 65.9353 12.8614 65.9353 10.9813V9.0399C65.6288 9.46905 64.5252 9.71428 63.2786 9.91864C61.2555 10.2865 60.2133 10.7974 60.2133 12.1257C60.2133 13.3314 60.8877 13.9853 62.3999 13.9853ZM69.9763 0.272973H71.3046V14.8845H69.9763V0.272973Z" fill="#161010"/>
</svg>
